<?xml version="1.0" encoding="UTF-8"?>
<svg width="100px" height="110px" viewBox="0 0 100 110" version="1.1" xmlns="http://www.w3.org/2000/svg" xmlns:xlink="http://www.w3.org/1999/xlink">
    <!-- Generator: Sketch 41.2 (35397) - http://www.bohemiancoding.com/sketch -->
    <title>MTB_mark</title>
    <desc>Created with Sketch.</desc>
    <defs></defs>
    <g id="Marks-&amp;-Avatars" stroke="none" stroke-width="1" fill="none" fill-rule="evenodd">
        <g id="MTB_mark">
            <g id="Group-2">
                <g id="Group">
                    <path d="M97.204,35.8347 C97.204,31.0367 94.599,26.5647 90.406,24.1657 L57.002,5.0527 C54.938,3.8717 52.587,3.2477 50.204,3.2477 C47.821,3.2477 45.47,3.8717 43.406,5.0527 L10.002,24.1657 C5.809,26.5647 3.204,31.0367 3.204,35.8347 L3.204,74.0607 C3.204,78.8587 5.809,83.3307 10.002,85.7297 L43.406,104.8427 C45.47,106.0237 47.821,106.6477 50.204,106.6477 C52.587,106.6477 54.938,106.0237 57.002,104.8427 L90.406,85.7297 C92.592,84.4787 94.34,82.6627 95.519,80.5327 C96.602,78.5767 97.204,76.3577 97.204,74.0607 L97.204,35.8347 Z" id="Fill-1" fill="#FEFEFE"></path>
                    <path d="M10.4461,27.7705 L45.9821,7.4375 C47.2251,6.7265 48.6131,6.3705 50.0001,6.3705 C51.3871,6.3705 52.7751,6.7265 54.0181,7.4375 L89.5541,27.7705 C92.0401,29.1935 93.5721,31.8215 93.5721,34.6675 L93.5721,46.6775 C87.0201,40.6845 63.5941,19.4475 63.5941,19.4475 C63.3931,19.2635 63.1251,19.1925 62.9181,19.1925 C62.7111,19.1925 62.4431,19.2645 62.2431,19.4475 L32.5851,46.3815 C32.1881,46.7495 31.6291,46.7475 31.2311,46.4355 C30.8741,46.1545 30.7091,45.5825 31.0281,45.0785 L37.4271,35.4755 C37.6571,35.1305 37.6241,34.5765 37.2611,34.2135 L29.7661,26.9915 C29.6141,26.8445 29.3801,26.7005 29.0531,26.7005 C28.7581,26.7005 28.5221,26.8245 28.3721,26.9595 C28.3721,26.9595 11.4891,42.1085 6.4281,46.6775 L6.4281,34.6675 C6.4281,31.8215 7.9601,29.1935 10.4461,27.7705 L10.4461,27.7705 Z M100.0001,34.6675 C100.0001,29.5625 97.2291,24.8055 92.7681,22.2535 L57.2321,1.9205 C55.0361,0.6635 52.5351,-0.0005 50.0001,-0.0005 C47.4651,-0.0005 44.9641,0.6635 42.7681,1.9205 L7.2321,22.2535 C2.7711,24.8055 0.0001,29.5625 0.0001,34.6675 L0.0001,75.3325 C0.0001,80.4375 2.7711,85.1945 7.2321,87.7465 L42.7681,108.0795 C44.9641,109.3355 47.4641,109.9995 50.0001,109.9995 C52.5351,109.9995 55.0361,109.3355 57.2321,108.0795 L92.7681,87.7465 C95.0931,86.4165 96.9541,84.4835 98.2071,82.2185 C99.3591,80.1375 100.0001,77.7765 100.0001,75.3325 L100.0001,34.6675 Z" id="Fill-3" fill="#8F181B"></path>
                    <path d="M82.7594,72.725 C82.5804,72.095 81.9244,71.729 81.2944,71.909 C81.1684,71.944 81.0574,72.003 80.9554,72.072 L80.9524,72.061 C80.9524,72.061 80.6664,72.247 80.6214,72.181 C80.6144,72.171 80.3444,71.857 79.9034,71.346 C80.1874,71.059 80.5384,70.832 80.9544,70.714 C82.2444,70.347 83.5874,71.095 83.9544,72.385 C84.3204,73.675 83.5724,75.018 82.2824,75.385 C81.3134,75.66 80.3154,75.306 79.7224,74.567 L80.1434,74.02 L80.8984,73.987 C81.1854,74.207 81.5674,74.297 81.9434,74.19 C82.5734,74.011 82.9384,73.355 82.7594,72.725 L82.7594,72.725 Z M84.2934,82.455 C79.0984,83.933 73.6894,80.919 72.2124,75.724 C71.3244,72.6 72.0684,69.404 73.9264,67.027 L78.2604,71.936 L77.7084,72.578 C77.5234,72.716 77.6274,72.982 77.6274,72.982 L77.8124,73.768 L78.6914,74.404 L78.5064,75.283 C78.8994,75.595 79.0384,75.456 79.0384,75.456 L79.3344,75.071 C80.0884,75.922 81.2874,76.318 82.4534,75.986 C84.0754,75.525 85.0164,73.836 84.5554,72.214 C84.0944,70.592 82.4054,69.651 80.7834,70.112 C80.2774,70.256 79.8384,70.519 79.4874,70.862 C78.4224,69.628 76.7494,67.693 75.0944,65.778 C76.1674,64.813 77.4634,64.064 78.9444,63.643 C84.1394,62.166 89.5474,65.18 91.0244,70.375 C92.5014,75.57 89.4874,80.978 84.2934,82.455 L84.2934,82.455 Z M65.3624,58.099 L62.5634,60.788 L62.2454,60.132 C62.2454,60.132 59.9694,57.204 58.2334,54.783 L58.1754,54.554 L58.2344,54.561 C58.2194,54.557 58.1974,54.547 58.1704,54.534 L57.4864,51.822 C58.0424,51.342 58.5704,50.905 58.5994,50.879 C58.6014,50.876 58.6104,50.872 58.6134,50.869 C60.1834,52.254 62.1384,52.896 63.8274,54.28 C63.8274,54.28 64.0154,54.748 64.5624,55.349 C64.4254,55.205 64.2304,55.006 64.6444,55.441 C64.6524,55.449 64.6554,55.45 64.6554,55.45 C64.6744,55.467 64.6984,55.487 64.7214,55.506 L64.3494,55.912 L65.6174,57.349 L65.5934,57.538 C65.6484,57.731 65.3624,58.099 65.3624,58.099 L65.3624,58.099 Z M65.2134,61.424 L62.1414,72.315 L62.1334,72.263 L62.3554,69.667 L62.4044,68.236 C62.3884,67.937 62.3974,67.598 62.4044,67.259 L62.5614,66.166 C62.5964,65.919 62.6154,65.609 62.7214,65.341 C62.8744,64.854 63.1384,64.232 63.0334,63.894 L62.8534,63.311 C62.7694,63.169 62.6064,62.882 62.5864,62.822 C62.5734,62.781 62.5664,62.73 62.5584,62.677 C62.6094,62.615 62.6474,62.571 62.6474,62.571 L62.8544,62.377 C63.0044,62.304 63.1464,62.199 63.1964,62.091 L63.1854,62.068 L64.1704,61.148 C64.7604,60.381 65.1004,60.753 65.1004,60.753 C65.2894,60.96 65.2134,61.424 65.2134,61.424 L65.2134,61.424 Z M63.3894,79.405 C62.4914,79.464 61.4584,79.559 60.6724,79.636 C60.9814,79.437 61.2244,79.213 61.4184,78.991 C61.4814,78.983 61.5474,78.98 61.6124,78.976 C61.7804,78.977 61.9514,78.979 62.1254,78.981 C62.1374,78.982 62.1474,78.981 62.1584,78.983 C62.6604,79.041 63.0734,79.224 63.3894,79.405 L63.3894,79.405 Z M59.4954,76.496 L59.4974,76.799 C59.4634,76.919 59.4234,77.057 59.3834,77.212 C59.3324,77.41 59.2144,77.723 59.1394,77.981 C58.9694,77.942 58.8924,77.864 58.8924,77.864 C58.1594,77.395 56.2524,74.629 56.2524,74.629 L55.6424,73.393 L57.2304,71.745 L58.2924,70.166 L58.4494,70.177 L58.4564,70.217 L58.8184,71.384 L59.1984,73.22 C59.3414,74.05 59.4524,74.891 59.5604,75.732 C59.5714,75.763 59.4854,75.859 59.5054,75.919 C59.4934,76.126 59.5954,76.329 59.4954,76.496 L59.4954,76.496 Z M55.3984,83.562 C55.3874,83.258 55.3644,82.954 55.3274,82.649 L55.3844,82.64 C55.3844,82.64 55.6694,82.592 56.0294,82.389 C56.2684,82.553 56.5414,82.669 56.8324,82.736 L55.3984,83.562 Z M46.4814,93.319 C41.3374,94.782 35.9814,91.797 34.5194,86.653 C33.0564,81.509 36.0404,76.154 41.1844,74.691 C43.7194,73.971 46.3024,74.333 48.4484,75.498 C48.3284,75.592 48.1294,75.723 47.9014,75.891 C47.6664,76.064 47.1714,76.336 46.9954,76.515 C46.8194,76.694 46.5014,77.016 46.9254,77.616 C47.2064,78.013 47.6334,78.285 48.1004,78.641 L45.5134,80.933 C45.2944,80.736 44.7624,80.295 44.6554,80.324 C44.5284,80.358 43.8454,80.855 43.8454,80.855 C43.8454,80.855 43.2214,80.416 43.0484,80.462 C42.8744,80.509 42.6664,80.659 42.6664,80.855 C42.6664,81.052 43.0134,81.372 43.0134,81.372 C41.6674,81.755 40.8874,83.156 41.2694,84.501 C41.5854,85.613 42.5984,86.328 43.6994,86.33 C43.7034,86.394 43.7114,86.457 43.7294,86.521 C43.8574,86.967 44.3144,87.228 44.7624,87.118 L44.8264,88.199 C44.5134,88.331 44.3304,88.658 44.3804,88.994 L43.8344,89.191 L43.8924,89.376 L44.9164,89.694 L44.9204,89.754 C44.9254,89.84 44.9744,89.918 45.0514,89.959 C45.0884,89.979 45.1284,89.989 45.1694,89.989 C45.2124,89.989 45.2554,89.977 45.2944,89.955 L53.4314,85.271 C52.9404,88.982 50.3114,92.23 46.4814,93.319 L46.4814,93.319 Z M54.2144,78.891 C53.7334,77.911 53.1254,77.022 52.4144,76.238 L54.5114,74.485 L56.3974,77.233 L55.9984,78.332 L54.2144,78.891 Z M54.8434,80.445 C54.7214,80.068 54.5824,79.703 54.4274,79.348 L55.5294,79.003 C55.2144,79.394 55.0224,79.885 55.0154,80.424 L54.8434,80.445 Z M49.8354,80.785 C49.8504,80.816 49.8644,80.844 49.8754,80.863 C49.9044,80.91 49.9454,80.962 49.9904,81.015 C49.9724,81.038 49.5534,81.619 50.1774,81.694 C50.2744,81.706 50.4794,81.706 50.7554,81.697 C50.9594,81.837 51.2404,82.027 51.3364,82.077 L46.1224,83.067 C46.0104,82.701 45.8164,82.386 45.5734,82.12 L49.8354,80.785 Z M48.8284,79.272 C49.2154,79.669 49.4544,80.041 49.6114,80.332 L46.2584,81.381 L48.8074,79.252 C48.8144,79.259 48.8214,79.265 48.8284,79.272 L48.8284,79.272 Z M52.8924,80.607 C52.6834,80.434 52.5114,80.32 52.5114,80.32 C52.5114,80.32 52.3734,80.194 52.2534,80.028 L52.6004,79.92 C52.7044,80.144 52.8044,80.372 52.8924,80.607 L52.8924,80.607 Z M52.3834,79.464 L52.0404,79.571 C51.9634,79.342 51.8944,79.099 51.8994,78.908 C51.9034,78.78 51.8754,78.691 51.8664,78.604 C52.0514,78.88 52.2254,79.166 52.3834,79.464 L52.3834,79.464 Z M53.4844,84.664 L45.8374,89.066 C45.8694,88.942 45.8724,88.811 45.8354,88.68 C45.8124,88.6 45.7754,88.53 45.7314,88.465 L46.2734,86.382 C46.4584,85.977 46.1584,85.804 46.1584,85.804 L45.6124,85.47 C45.9484,85.084 46.1634,84.603 46.2214,84.089 L53.4484,82.946 C53.5124,83.523 53.5234,84.097 53.4844,84.664 L53.4844,84.664 Z M51.4684,68.433 L50.6404,67.444 L50.7954,67.348 L50.5514,66.948 L50.2634,67.115 L49.2794,65.69 L49.1074,65.717 L46.1244,61.458 L47.0314,60.523 C47.7754,59.66 48.2754,59.492 48.2754,59.492 C48.6174,59.35 49.1994,59.178 49.3544,59.134 L53.9264,65.71 C54.0334,65.813 54.5134,66.372 54.7354,66.497 C54.8294,66.55 55.5354,66.404 55.5354,66.404 C55.6614,66.478 55.8704,66.926 55.8164,67.02 C55.7614,67.117 55.7484,67.068 55.7304,67.097 C55.3774,67.359 54.9284,67.564 54.5384,67.888 C54.4704,67.942 54.3544,68.036 54.2224,68.146 L53.3514,68.549 C51.9774,69.304 51.4684,68.433 51.4684,68.433 L51.4684,68.433 Z M92.9484,69.828 C91.1694,63.571 84.6544,59.94 78.3974,61.72 C76.5514,62.244 74.9374,63.183 73.6194,64.404 C72.8764,63.514 71.7184,62.13 71.2704,61.603 C71.1924,61.511 71.3354,61.23 71.2634,61.145 C70.6144,60.382 70.2104,59.906 70.2104,59.906 L69.5874,59.458 C69.5874,59.458 69.4464,59.361 69.2094,59.35 L66.8644,56.604 L66.6054,56.74 C66.5644,56.652 66.5294,56.58 66.5104,56.548 C66.3114,56.214 66.9654,56.315 66.9654,56.315 L66.9844,56.279 C67.1914,56.264 67.3184,56.171 67.1794,55.93 L67.2774,55.754 C67.6384,55.692 67.8834,55.497 67.9344,55.431 C68.1574,55.208 67.8074,53.649 67.5534,53.554 C67.5854,53.618 66.8214,53.14 65.8674,52.918 C64.5314,52.473 63.4214,51.224 62.6904,50.356 C62.1504,49.713 61.5954,49.041 61.1494,48.315 C61.9544,47.097 63.2594,45.001 63.7474,44.298 C64.3614,43.414 63.8404,41.858 63.8194,40.85 C63.8184,40.772 63.9124,40.584 63.8564,40.443 L63.7874,40.377 C63.9784,40.128 64.6304,39.581 65.5974,39.965 C66.0604,40.149 66.4844,40.145 66.8884,40.027 C67.2544,39.921 67.2184,39.656 67.3664,39.216 C67.3974,39.046 67.5334,38.968 67.5854,38.873 C67.6254,38.741 67.6204,38.585 67.5864,38.476 L67.7334,38.433 C68.0994,38.327 67.8424,38.122 67.9764,37.765 C68.1064,37.809 68.2754,37.838 68.3854,37.806 C68.4584,37.786 68.4894,37.616 68.4934,37.498 L68.2774,36.764 C68.2464,36.654 68.2094,36.666 68.2004,36.628 C68.2784,36.487 68.3194,36.357 68.3224,36.237 C68.3314,35.995 68.3234,35.56 68.2924,35.451 C68.2724,35.378 68.1514,35.372 68.0934,35.309 C68.6384,35.272 69.6184,35.225 69.6894,35.203 C69.6894,35.203 70.0244,34.987 69.9934,34.877 C69.9594,34.768 69.2544,34.257 69.0014,33.934 C68.6794,33.513 68.5304,33 68.2924,32.591 C67.8844,31.876 66.9074,30.849 65.8644,30.674 C64.4004,30.424 62.8564,30.715 61.5014,31.107 C61.4264,31.13 60.6814,31.271 60.7004,31.501 C60.7134,31.659 60.9714,31.819 61.1114,31.818 C60.8264,31.821 60.5874,31.895 60.6644,32.06 C61.0954,33.034 60.5014,32.589 60.7394,33.395 C60.7704,33.505 61.3164,34.419 61.3354,34.491 C61.4444,34.857 61.3834,35.193 61.4634,35.606 C61.4744,35.643 61.5564,35.877 61.5344,35.983 C61.4044,36.603 60.9934,37.142 60.7104,37.433 L60.5964,37.324 C60.3994,37.282 60.1704,37.478 60.0604,37.508 C59.9874,37.527 58.5394,38.164 58.4294,38.194 C58.3544,38.214 57.4434,37.693 56.7154,37.776 C56.7154,37.776 55.7424,37.974 54.2654,39.019 C54.2024,39.064 51.7094,40.728 51.0144,41.304 C50.4364,41.784 48.5214,44.266 48.6294,44.945 C48.7384,45.63 49.6484,45.937 49.6744,45.918 C49.1944,46.257 47.9714,48.16 47.2704,50.078 C47.2064,50.256 47.4894,50.295 47.7144,50.39 C47.5234,50.839 47.1804,51.327 47.0714,51.792 C47.0314,51.941 46.9984,52.094 46.9704,52.249 C46.1604,53.668 46.0044,55.697 48.5984,58.158 L48.6724,58.153 L48.9794,58.595 C48.3304,58.72 47.6564,58.965 47.6564,58.965 C45.4654,59.874 44.4744,60.052 44.4744,60.052 C41.8884,60.396 41.4544,60.884 41.4544,60.884 C40.9304,61.424 41.5804,61.787 41.5804,61.787 L43.3154,61.476 C44.0894,62.089 44.5264,62.069 44.5264,62.069 L45.2674,61.833 L49.5214,67.632 C49.0074,68.116 49.3384,68.179 49.3384,68.179 C49.3384,68.179 49.7824,68.183 49.8614,68.186 C49.9014,68.188 50.9094,69.562 51.8974,70.922 L51.4604,71.907 L50.8164,72.837 L50.7104,73.03 C50.4694,73.346 50.2134,73.82 49.9734,74.194 C47.2944,72.519 43.9454,71.94 40.6674,72.872 C34.5184,74.62 30.9514,81.022 32.6994,87.171 C34.4484,93.319 40.8494,96.887 46.9984,95.138 C52.0474,93.703 55.3534,89.129 55.4074,84.134 L57.7894,82.763 C58.7754,82.578 59.5384,81.771 59.6714,80.765 L65.5134,80.084 C65.5134,80.084 65.5754,79.999 65.6074,79.886 C65.7734,79.871 65.9214,79.854 65.9714,79.841 C66.1054,79.806 66.7054,79.681 67.0344,79.43 C67.3634,79.18 68.0004,78.563 67.5024,78.078 C67.0044,77.592 65.7544,77.741 65.7544,77.741 C65.7544,77.741 65.6564,77.737 65.5264,77.714 C65.0474,77.46 64.6224,77.189 64.3984,77.041 C64.3954,77.037 64.3914,77.034 64.3884,77.031 C64.2354,76.83 64.0884,76.829 63.9414,76.583 C63.7714,76.301 63.6694,76.298 63.6874,76.118 C63.7044,75.937 63.6184,75.712 63.4474,75.976 C63.2754,76.242 63.3234,76.222 63.1794,76.202 C63.0984,76.191 63.1014,76.188 62.9354,76.062 C62.9304,75.958 62.8694,75.764 62.7904,75.51 L67.0894,61.334 C67.3214,60.803 67.5814,60.607 67.7984,60.552 L67.8134,60.581 C67.8134,60.581 68.0984,61.233 68.3494,61.292 C68.3494,61.292 69.2964,61.596 69.9564,62.451 L70.2964,62.35 L72.7214,65.333 C70.2094,68.234 69.1604,72.303 70.2884,76.271 C72.0684,82.528 78.5824,86.158 84.8404,84.379 C91.0974,82.6 94.7274,76.085 92.9484,69.828 L92.9484,69.828 Z" id="Fill-6" fill="#FEFEFE"></path>
                </g>
            </g>
        </g>
    </g>
</svg>