<?xml version="1.0" encoding="UTF-8"?>
<svg width="100px" height="110px" viewBox="0 0 100 110" version="1.1" xmlns="http://www.w3.org/2000/svg" xmlns:xlink="http://www.w3.org/1999/xlink">
    <!-- Generator: Sketch 41.2 (35397) - http://www.bohemiancoding.com/sketch -->
    <title>HP_Mark</title>
    <desc>Created with Sketch.</desc>
    <defs></defs>
    <g id="Marks-&amp;-Avatars" stroke="none" stroke-width="1" fill="none" fill-rule="evenodd">
        <g id="HP_Mark">
            <g id="Mark">
                <path d="M97.204,35.8347 C97.204,31.0367 94.599,26.5647 90.406,24.1657 L57.002,5.0527 C54.938,3.8717 52.587,3.2477 50.204,3.2477 C47.821,3.2477 45.47,3.8717 43.406,5.0527 L10.002,24.1657 C5.809,26.5647 3.204,31.0367 3.204,35.8347 L3.204,74.0607 C3.204,78.8587 5.809,83.3307 10.002,85.7297 L43.406,104.8427 C45.47,106.0237 47.821,106.6477 50.204,106.6477 C52.587,106.6477 54.938,106.0237 57.002,104.8427 L90.406,85.7297 C92.592,84.4787 94.34,82.6627 95.519,80.5327 C96.602,78.5767 97.204,76.3577 97.204,74.0607 L97.204,35.8347 Z" id="Fill-1" fill="#FEFEFE"></path>
                <path d="M10.4461,27.7705 L45.9821,7.4375 C47.2251,6.7265 48.6131,6.3705 50.0001,6.3705 C51.3871,6.3705 52.7751,6.7265 54.0181,7.4375 L89.5541,27.7705 C92.0401,29.1935 93.5721,31.8215 93.5721,34.6675 L93.5721,46.6775 C87.0201,40.6845 63.5941,19.4475 63.5941,19.4475 C63.3931,19.2635 63.1251,19.1925 62.9181,19.1925 C62.7111,19.1925 62.4431,19.2645 62.2431,19.4475 L32.5851,46.3815 C32.1881,46.7495 31.6291,46.7475 31.2311,46.4355 C30.8741,46.1545 30.7091,45.5825 31.0281,45.0785 L37.4271,35.4755 C37.6571,35.1305 37.6241,34.5765 37.2611,34.2135 L29.7661,26.9915 C29.6141,26.8445 29.3801,26.7005 29.0531,26.7005 C28.7581,26.7005 28.5221,26.8245 28.3721,26.9595 C28.3721,26.9595 11.4891,42.1085 6.4281,46.6775 L6.4281,34.6675 C6.4281,31.8215 7.9601,29.1935 10.4461,27.7705 L10.4461,27.7705 Z M100.0001,34.6675 C100.0001,29.5625 97.2291,24.8055 92.7681,22.2535 L57.2321,1.9205 C55.0361,0.6635 52.5351,-0.0005 50.0001,-0.0005 C47.4651,-0.0005 44.9641,0.6635 42.7681,1.9205 L7.2321,22.2535 C2.7711,24.8055 0.0001,29.5625 0.0001,34.6675 L0.0001,75.3325 C0.0001,80.4375 2.7711,85.1945 7.2321,87.7465 L42.7681,108.0795 C44.9641,109.3355 47.4641,109.9995 50.0001,109.9995 C52.5351,109.9995 55.0361,109.3355 57.2321,108.0795 L92.7681,87.7465 C95.0931,86.4165 96.9541,84.4835 98.2071,82.2185 C99.3591,80.1375 100.0001,77.7765 100.0001,75.3325 L100.0001,34.6675 Z" id="Fill-3" fill="#578F3F"></path>
                <path d="M72.2601,55.7018 C72.2711,55.7008 72.2741,55.6998 72.2741,55.6998 C72.4271,55.6948 72.6801,55.6458 72.7351,55.6348 L74.8811,90.4568 L75.4631,90.4668 L73.3811,55.3988 C73.7181,55.2728 74.3151,54.9148 73.9541,54.4458 C74.1251,54.1928 74.1141,53.9608 73.9181,53.7468 C74.2611,53.5408 74.2651,53.2978 73.9311,53.0198 C74.0351,52.9308 74.0801,52.8368 74.0681,52.7408 C74.0331,52.3708 73.7331,52.1968 73.1701,52.2178 C73.2221,52.0378 73.5741,51.5808 73.3781,51.4528 C73.4471,51.2068 73.3751,51.0938 73.1621,51.1108 C73.0811,51.0868 72.9901,51.1688 72.8901,51.3548 C72.6261,51.3598 72.1041,51.3978 72.1861,51.7908 C71.7911,51.8848 71.5681,51.9408 71.5171,51.9648 C71.2531,52.0728 71.1431,52.5428 70.9741,52.7648 C70.3221,53.9168 68.4931,53.6258 67.3861,53.5288 C66.1751,53.4238 64.8971,53.3018 63.7741,52.8158 C63.8091,52.2468 63.8211,51.4978 63.8611,50.9318 C63.9101,50.2148 63.7791,48.2718 63.7791,48.2718 C64.2141,46.6278 64.0441,45.7678 63.9891,45.5578 C64.2981,45.6738 64.0501,45.2508 63.8871,44.9678 C63.9111,44.6148 63.7371,44.4558 63.6081,44.1878 C63.2471,43.3678 63.2451,43.1528 62.5901,42.1968 C62.5891,42.1908 62.6681,42.0678 62.6291,41.9558 C62.6131,41.7818 62.4931,41.9078 62.4711,41.7188 C62.7241,39.1558 64.2911,40.6038 64.4401,39.6668 C64.4731,39.4578 64.2001,39.0948 64.4971,38.9578 C64.8561,38.7918 64.2631,38.5448 64.6541,38.2798 C64.9411,38.0998 64.5291,37.6518 64.9231,37.5728 C65.4531,37.4628 65.4311,37.1588 65.1621,36.7908 C65.0201,36.5958 64.5631,36.0788 64.6421,35.8188 C64.6891,35.6638 64.9241,35.5718 64.9271,35.4068 C64.9281,35.1898 64.8581,34.9718 64.8581,34.7638 C65.3891,34.7448 65.9461,34.6468 66.4031,34.3628 C66.8791,34.0028 67.0481,33.5738 66.9121,33.0748 C66.7811,32.7478 64.5751,33.0008 64.3481,33.0078 C64.2961,32.9468 63.6821,32.5688 63.4961,32.4568 C63.1341,32.2388 62.7531,32.1148 62.3311,32.0058 C61.5141,31.7948 60.8411,31.8728 60.0591,31.9378 C58.7711,32.0538 57.3481,34.1398 57.7211,35.3598 C57.8081,35.6918 57.6911,35.9038 57.7281,35.9788 C57.7281,35.9788 57.7241,36.7658 58.2091,37.7608 C58.5291,38.4178 59.2751,38.3798 58.8161,40.5318 C58.5071,40.4698 58.9561,40.7668 58.2561,41.1178 C58.2561,41.1178 57.4161,41.4308 57.4031,41.4548 C57.4241,41.3568 57.2691,40.9838 56.9891,40.6288 C56.3541,39.8308 56.9011,38.6808 56.4101,38.1248 C56.0471,37.7318 55.0971,37.4938 53.9951,37.6498 C52.9141,37.7948 49.4961,39.0288 49.2901,40.4688 C48.8471,41.1178 48.5311,40.9438 48.4041,43.4908 C48.3561,44.2978 48.7361,46.2128 49.6521,46.1108 C49.6721,46.3588 49.8851,46.6628 49.6541,46.8298 C49.4231,46.9968 49.3311,47.2868 49.5751,47.5738 C49.6761,47.6728 50.9061,51.1208 50.8821,52.2148 C50.9281,53.3618 51.0641,55.1898 51.0541,56.1478 C51.0301,58.3878 51.6081,58.8478 51.7291,59.0078 C51.9711,59.3338 53.3871,59.5708 54.0921,59.3418 C54.1181,59.5288 54.1721,59.8028 54.4191,59.8928 C54.4231,59.8948 54.4341,59.8988 54.4521,59.9078 L54.4551,59.9128 C54.1181,61.3328 54.5101,61.7248 55.1171,63.3698 C54.9971,63.6768 51.9611,69.8148 51.9611,69.8148 C51.8031,70.1388 50.6161,72.3628 50.0741,73.4508 L49.6111,73.7808 C49.6111,73.7808 47.0741,74.8268 43.7621,78.2408 C40.9501,81.1388 40.5441,81.6238 40.5441,81.6238 C40.5441,81.6238 40.7181,81.7498 40.6761,81.8088 C39.9341,82.2538 39.3481,83.0338 39.3481,83.0338 C39.3481,83.0338 39.0231,83.5168 39.7511,84.4198 L40.9531,85.4018 L41.2221,85.3488 C41.2221,85.3488 43.0671,87.9238 43.4291,88.4298 L43.4141,88.4678 C43.9471,89.1238 45.3391,89.3888 45.5781,89.4468 C45.7761,89.4958 46.3351,89.8298 46.5081,89.0728 C46.5371,88.9488 46.6481,88.7418 46.6551,88.5538 C46.6551,88.5538 46.8591,87.8048 46.1301,87.2978 C46.1301,87.2978 45.9021,87.1248 45.5501,86.8508 C45.3691,86.5088 45.1311,86.0538 44.8811,85.5538 C44.8811,85.5538 44.3041,84.2368 44.4941,84.0738 C44.5281,84.1608 44.6761,84.2508 44.6761,84.2508 L45.5081,83.2668 L46.6421,82.3178 L50.2921,79.4638 L50.9781,78.8168 L51.0481,78.8438 C51.0871,78.7748 51.1191,78.7138 51.1521,78.6528 L54.3241,75.6598 L54.3041,75.6378 C55.0741,75.0508 55.7851,74.4198 55.9221,74.2328 C56.0011,74.1948 58.0271,71.5308 58.0431,71.4278 C58.2551,71.0648 58.9361,70.3908 59.3271,69.1188 C59.4161,68.8268 59.9671,69.6228 60.0851,69.9038 C60.8681,71.7788 61.6481,73.6188 61.7861,73.7918 C61.9911,74.4148 62.2621,75.3608 62.5441,75.8318 L62.5361,76.2788 C62.5361,76.2788 62.0311,79.5568 62.8031,84.2498 C63.4581,88.2338 63.6061,88.8488 63.6061,88.8488 C63.6061,88.8488 63.8121,88.7848 63.8331,88.8528 C63.7501,89.7138 64.0281,90.6498 64.0281,90.6498 C64.0281,90.6498 64.2231,91.1978 65.3811,91.1498 L66.8861,90.7688 L67.0041,90.5208 C67.0041,90.5208 69.5911,90.5218 69.8631,90.5258 C70.1361,90.5308 71.8121,90.2458 72.0481,90.1788 C72.2441,90.1238 72.8961,90.1408 72.6751,89.3958 C72.6391,89.2738 72.6351,89.0388 72.5481,88.8718 C72.5481,88.8718 72.3571,88.1188 71.4741,88.0358 C71.4741,88.0358 70.5001,87.9048 69.3461,87.7028 C69.3461,87.7028 67.9451,87.3828 67.9271,87.1328 C68.0171,87.1568 68.1771,87.0918 68.1771,87.0918 L67.8811,85.8388 L67.7941,84.3618 L67.6721,79.7298 L67.0961,75.4378 C67.1381,74.6508 67.4041,74.0308 67.0631,73.2458 C67.1741,73.0858 65.9601,67.4008 63.6801,62.4318 C63.4881,62.0138 63.7841,61.8648 63.2761,61.4718 C63.2421,61.3578 63.2101,61.2578 63.1801,61.1668 C63.2681,60.6978 63.2101,60.4958 63.1971,59.7478 C63.1951,59.6158 63.8631,59.3128 63.8021,59.3168 C63.7621,58.3338 63.6451,58.1258 63.4541,56.6518 C66.1501,57.0368 68.2711,55.7208 70.8901,55.4628 C70.8901,55.4628 71.3451,55.6568 72.1401,55.6948 C71.9461,55.6898 71.6721,55.6868 72.2601,55.7018" id="Fill-6" fill="#FEFEFE"></path>
            </g>
        </g>
    </g>
</svg>