<?xml version="1.0" encoding="UTF-8"?>
<svg width="100px" height="110px" viewBox="0 0 100 110" version="1.1" xmlns="http://www.w3.org/2000/svg" xmlns:xlink="http://www.w3.org/1999/xlink">
    <!-- Generator: Sketch 41.2 (35397) - http://www.bohemiancoding.com/sketch -->
    <title>TRP_Mark</title>
    <desc>Created with Sketch.</desc>
    <defs></defs>
    <g id="Marks-&amp;-Avatars" stroke="none" stroke-width="1" fill="none" fill-rule="evenodd">
        <g id="TRP_Mark">
            <g id="Mark">
                <path d="M97.204,35.8347 C97.204,31.0367 94.599,26.5647 90.406,24.1657 L57.002,5.0527 C54.938,3.8717 52.587,3.2477 50.204,3.2477 C47.821,3.2477 45.47,3.8717 43.406,5.0527 L10.002,24.1657 C5.809,26.5647 3.204,31.0367 3.204,35.8347 L3.204,74.0607 C3.204,78.8587 5.809,83.3307 10.002,85.7297 L43.406,104.8427 C45.47,106.0237 47.821,106.6477 50.204,106.6477 C52.587,106.6477 54.938,106.0237 57.002,104.8427 L90.406,85.7297 C92.592,84.4787 94.34,82.6627 95.519,80.5327 C96.602,78.5767 97.204,76.3577 97.204,74.0607 L97.204,35.8347 Z" id="Fill-1" fill="#FEFEFE"></path>
                <path d="M10.4461,27.7705 L45.9821,7.4375 C47.2251,6.7265 48.6131,6.3705 50.0001,6.3705 C51.3871,6.3705 52.7751,6.7265 54.0181,7.4375 L89.5541,27.7705 C92.0401,29.1935 93.5721,31.8215 93.5721,34.6675 L93.5721,46.6775 C87.0201,40.6845 63.5941,19.4475 63.5941,19.4475 C63.3931,19.2635 63.1251,19.1925 62.9181,19.1925 C62.7111,19.1925 62.4431,19.2645 62.2431,19.4475 L32.5851,46.3815 C32.1881,46.7495 31.6291,46.7475 31.2311,46.4355 C30.8741,46.1545 30.7091,45.5825 31.0281,45.0785 L37.4271,35.4755 C37.6571,35.1305 37.6241,34.5765 37.2611,34.2135 L29.7661,26.9915 C29.6141,26.8445 29.3801,26.7005 29.0531,26.7005 C28.7581,26.7005 28.5221,26.8245 28.3721,26.9595 C28.3721,26.9595 11.4891,42.1085 6.4281,46.6775 L6.4281,34.6675 C6.4281,31.8215 7.9601,29.1935 10.4461,27.7705 L10.4461,27.7705 Z M100.0001,34.6675 C100.0001,29.5625 97.2291,24.8055 92.7681,22.2535 L57.2321,1.9205 C55.0361,0.6635 52.5351,-0.0005 50.0001,-0.0005 C47.4651,-0.0005 44.9641,0.6635 42.7681,1.9205 L7.2321,22.2535 C2.7711,24.8055 0.0001,29.5625 0.0001,34.6675 L0.0001,75.3325 C0.0001,80.4375 2.7711,85.1945 7.2321,87.7465 L42.7681,108.0795 C44.9641,109.3355 47.4641,109.9995 50.0001,109.9995 C52.5351,109.9995 55.0361,109.3355 57.2321,108.0795 L92.7681,87.7465 C95.0931,86.4165 96.9541,84.4835 98.2071,82.2185 C99.3591,80.1375 100.0001,77.7765 100.0001,75.3325 L100.0001,34.6675 Z" id="Fill-3" fill="#C06027"></path>
                <path d="M59.9875,49.0353 C59.4175,48.9603 59.4535,48.9773 59.4535,48.9773 C59.4535,48.9773 57.4365,48.7683 57.2235,48.6823 C57.2235,48.6823 59.3015,46.9913 60.0285,46.2043 C60.0165,46.8753 59.9695,48.3503 59.9875,49.0353 M66.3605,56.1623 C66.3895,56.0793 66.6925,54.6833 66.7455,54.4193 C67.9545,54.1683 69.0085,53.7493 69.6145,53.4813 C70.3105,53.1493 72.7515,51.7683 72.8985,51.7303 C73.0455,51.6923 73.5225,51.6313 73.5225,51.6313 C73.8155,51.7073 74.4085,51.6473 74.4905,51.6283 C74.6695,51.5873 75.4975,51.3663 75.6525,51.2543 C75.8835,51.0883 75.7665,50.7943 75.7715,50.7463 C75.7765,50.6993 75.9175,50.5283 75.9265,50.3213 C75.9345,50.1213 75.7405,49.9743 75.7645,49.9493 C75.7885,49.9233 75.8455,49.7823 75.8725,49.6873 C75.9005,49.5903 75.8345,49.4803 75.6725,49.3623 C75.5115,49.2443 75.5715,49.2123 75.5635,49.1793 C75.5565,49.1453 75.6345,48.9903 75.6695,48.8083 C75.7045,48.6263 75.4895,48.4843 75.2625,48.4203 C75.0345,48.3553 74.6975,48.5233 74.6465,48.4933 C74.5955,48.4623 74.6545,48.3733 74.8755,48.1203 C75.1235,47.8343 74.6555,47.7193 74.4225,47.7983 C74.2295,47.8643 73.8015,48.0563 73.5005,48.3893 C73.2005,48.7223 72.9255,48.9853 72.8315,49.3143 C72.7385,49.6423 72.2825,49.9563 72.2825,49.9563 C72.2825,49.9563 70.7425,50.5333 69.6885,50.8193 C68.2415,51.2113 67.3115,51.4643 67.2535,51.5163 C67.3295,51.0453 67.3865,50.6313 67.3925,50.5723 C67.4125,50.3603 67.6285,49.0743 67.9125,48.6743 C68.3545,48.0533 68.8205,47.7973 68.8205,46.9363 C68.8205,46.3623 68.1895,45.1763 67.7785,44.3903 C67.5335,43.9213 67.3395,43.4333 67.3395,43.4333 L67.1935,41.8853 C67.1935,41.8853 67.2585,40.9743 67.2905,40.8713 C67.3235,40.7683 67.4765,40.5903 67.7815,40.4703 C68.0875,40.3513 69.0225,40.5043 69.0225,40.5043 C69.3335,40.5463 69.5285,40.2373 69.5985,40.0373 C69.6695,39.8363 69.5315,39.4873 69.5235,39.4063 C69.5145,39.3263 69.5945,39.1893 69.6845,39.1343 C69.7745,39.0783 69.7265,38.8823 69.7265,38.8823 L69.4585,38.6653 L69.4005,38.6033 L69.7535,38.3653 C69.7535,38.3653 69.8285,38.2933 69.7565,38.1663 C69.7205,38.1033 69.7245,37.8863 69.7965,37.8503 C69.8675,37.8143 70.0905,37.6223 70.3555,37.4343 C70.6225,37.2473 70.3885,37.0973 70.3885,37.0973 C70.3885,37.0973 69.7505,36.2053 69.7115,36.1373 C69.6725,36.0693 69.6335,35.7673 69.6685,35.6433 C69.7035,35.5183 69.7195,35.3493 69.7195,35.3493 C69.6925,35.1553 69.2195,34.1933 69.1165,34.0773 C69.0155,33.9613 68.7115,33.3563 68.7195,33.2723 C68.7275,33.1863 68.6455,32.8543 68.6055,32.5783 C68.5635,32.3033 67.4415,31.9773 67.1785,31.8883 C66.9155,31.7993 65.3615,31.7363 64.6335,31.7723 C63.9065,31.8093 63.4165,32.2103 62.6225,32.9433 C62.4515,33.1023 62.3035,33.2913 62.1745,33.4883 C62.1035,33.4773 61.9835,33.4113 61.9295,33.5513 C61.9255,33.5513 61.6565,33.4953 61.4895,33.4753 C61.0305,33.2173 60.0875,32.8133 59.3455,32.8813 C58.3945,32.9673 57.4335,33.2203 56.9945,33.2343 C56.4905,33.2513 55.1695,34.1563 55.2395,34.2203 C55.3285,34.3013 56.6195,33.7113 57.4045,33.9063 C57.8925,34.0283 58.2655,33.9453 58.5195,33.9893 C57.3275,34.5363 55.9695,35.5843 55.3775,37.7523 C55.3775,37.7523 55.2435,38.2723 55.0495,38.6883 C55.0495,38.6883 54.8715,39.1053 54.3515,39.5373 C53.7025,39.9863 54.7115,39.5303 54.7115,39.5303 C55.0425,39.2913 56.0665,38.9413 56.2735,38.2333 C56.5845,37.1703 57.1105,36.9263 57.1105,36.9263 C57.1105,36.9263 56.6065,37.6113 56.8295,38.0493 C56.9955,38.3773 57.1995,38.6133 57.1995,38.6133 C57.4815,39.0023 57.4505,39.5003 57.4505,39.5003 C57.5825,39.5473 57.8675,38.5733 57.7955,38.1763 C57.7095,37.7023 57.7035,37.6943 57.8095,37.4003 C57.8975,37.1563 58.2305,36.9783 58.4685,36.8433 C58.6015,36.7763 58.9875,36.6253 59.3225,36.4013 C59.3225,36.4013 60.4715,35.6353 60.7595,35.4133 C60.7595,35.4133 60.9535,35.2273 61.2355,34.9413 C61.2355,34.9413 61.3935,34.8363 61.4965,34.7353 C61.4795,34.8163 61.4885,34.9153 61.5025,34.9253 C61.5115,34.9303 61.5255,34.9393 61.5445,34.9473 C61.5275,35.2103 61.5285,35.8143 61.6085,36.4083 C61.6735,36.6863 61.7575,36.8643 61.8165,37.1083 C61.8575,37.2743 62.2755,37.9833 62.5525,38.3933 C62.8305,38.8023 63.1425,38.6203 63.3255,38.8293 C63.5095,39.0383 63.4905,39.1863 63.4905,39.1863 C63.4905,39.1863 63.4495,40.1413 63.3655,40.4953 C63.2835,40.8503 62.6695,40.9623 62.6695,40.9623 C62.6325,40.9893 62.5915,41.0273 62.5505,41.0663 C62.4365,41.0433 62.3255,41.0323 62.2275,41.0593 C62.0745,41.1003 61.7905,41.2233 61.4555,41.3913 C61.4555,41.3913 59.9805,41.9143 58.8295,43.4723 C58.6125,43.6803 58.3415,43.9803 58.2495,44.0593 C58.1115,44.1783 54.4255,47.0103 53.5305,49.0793 C53.5305,49.0793 53.1175,50.1013 53.8125,50.4313 C54.5075,50.7633 57.3625,51.2363 58.0075,51.2973 C58.2785,51.3243 59.2035,51.3473 60.1825,51.3663 C60.2105,52.5153 59.6725,55.2723 59.5835,55.6203 C59.5245,55.8453 59.2315,56.1203 59.0005,56.4843 C58.8135,56.4603 57.8165,57.1993 57.2915,57.6723 C56.9235,58.0043 56.0985,59.3583 55.8315,60.6573 C55.7095,61.4653 55.3255,62.4703 55.0935,62.9473 C54.5495,64.3243 54.1395,64.6663 53.9255,65.1363 C53.7725,65.4233 53.1295,66.4143 52.9475,66.6483 C51.9965,67.8753 51.7545,68.3963 51.2565,69.4033 C50.9405,70.0423 50.6215,71.0363 50.2045,71.0013 C49.2575,70.9233 48.3805,70.1133 45.7525,70.4693 C44.5285,70.6353 44.0275,70.7823 42.4925,70.8663 C41.4195,70.9253 39.4325,70.7913 39.1345,70.6953 C39.0325,70.6623 38.7005,70.6093 38.6685,70.5723 C38.5625,70.4553 38.4115,70.2543 38.2185,70.0243 C38.0245,69.7933 37.7115,69.3003 37.5155,69.1313 C37.3195,68.9603 36.9665,68.6533 36.3765,69.1303 C35.7855,69.6063 35.5165,70.4023 34.7915,71.2013 C34.0675,72.0023 33.3905,72.2663 33.2195,72.3853 C32.9575,72.5673 32.5645,73.1073 32.5615,73.1103 C32.5605,73.1083 32.1045,73.8573 32.0535,73.9903 C32.0035,74.1243 31.7475,74.7043 31.7615,75.1323 C31.7745,75.5593 31.9115,76.4643 32.6185,76.3373 C33.3265,76.2103 33.9515,75.0683 33.9515,75.0683 C33.9515,75.0683 34.2015,74.7443 34.4815,74.6233 C34.7635,74.5023 35.1085,74.3543 35.3685,74.3453 C35.6285,74.3363 35.7265,74.2073 35.9855,74.3503 C36.2435,74.4933 36.3585,74.6283 36.4995,74.7503 C36.6415,74.8733 37.0235,75.0413 36.9045,74.7373 C36.7835,74.4333 36.4795,74.0273 36.5825,73.9173 C36.6875,73.8073 37.2895,73.5993 37.4685,73.6263 C37.6485,73.6533 42.6075,73.9283 44.9045,74.3373 C46.9275,74.6983 49.3355,74.9073 50.4655,75.2183 C51.5965,75.5293 52.2745,74.9103 52.9745,74.2913 C53.6745,73.6723 54.4815,73.0023 55.4825,72.2043 C55.9515,71.8303 56.8315,70.9033 57.6985,69.9213 C59.3485,68.1733 60.7575,66.4143 61.2195,65.8263 C61.8295,66.6653 62.9285,68.0713 64.1695,69.1643 C65.4705,70.3103 68.4035,72.9403 68.3865,73.4013 L68.4125,73.3913 C68.2915,74.0053 67.6075,74.7903 67.3255,77.2023 C67.1535,78.6833 67.8125,80.2493 67.9815,81.8623 C67.9815,81.8623 68.2545,85.0563 67.9805,85.7873 C67.9435,85.8873 67.7905,85.8553 67.7605,85.8933 C67.6625,86.0163 67.7065,86.1223 67.6765,86.3653 L67.7035,86.3683 C67.6595,86.5443 67.5875,86.7563 67.5775,86.7853 C67.5285,86.9353 67.4285,87.1673 67.3245,87.4483 C67.2205,87.7313 66.9485,88.2473 66.8985,88.5023 C66.8475,88.7573 66.7565,89.2153 67.4635,89.4913 C68.1705,89.7673 68.9945,89.6063 70.0485,89.8383 C71.1025,90.0693 71.6685,90.5263 71.8565,90.6153 C72.1445,90.7523 72.8085,90.8253 72.8125,90.8263 C72.8115,90.8283 73.6875,90.8523 73.8295,90.8293 C73.9705,90.8073 74.6005,90.7413 74.9645,90.5163 C75.3295,90.2933 76.0465,89.7253 75.5855,89.1743 C75.1235,88.6233 73.8225,88.6473 73.8225,88.6473 C73.8225,88.6473 73.4165,88.5913 73.1725,88.4083 C72.9275,88.2243 72.6275,87.9973 72.4905,87.7773 C72.3535,87.5553 72.1935,87.5343 72.1885,87.2383 C72.1845,86.9433 72.2445,86.7763 72.2815,86.5933 C72.3175,86.4093 72.2725,85.9943 72.0695,86.2483 C71.8645,86.5043 71.6635,86.9693 71.5165,86.9343 C71.4355,86.9153 71.2545,86.7783 71.0965,86.6313 C71.1125,86.3273 70.7505,85.2823 70.7845,84.0693 C70.8795,83.2953 70.9765,82.5683 71.0365,82.1963 C71.2015,81.1513 71.8175,77.6423 71.9885,76.5583 C72.1575,75.4793 72.1365,75.0013 72.5165,74.0203 C72.8615,73.1273 73.0965,72.4183 72.7015,71.4433 L72.6955,71.4453 C72.3255,70.5073 71.0395,68.1083 70.4345,67.1733 C68.6545,64.4263 66.5455,62.0363 65.8455,61.0753 C65.7085,60.8863 65.4665,60.4763 65.3225,60.0193 C65.1665,59.5223 65.5685,58.7773 65.5685,58.7773 C66.0105,57.8023 66.3605,56.1623 66.3605,56.1623" id="Fill-6" fill="#FEFEFE"></path>
            </g>
        </g>
    </g>
</svg>