<?xml version="1.0" encoding="UTF-8"?>
<svg width="100px" height="110px" viewBox="0 0 100 110" version="1.1" xmlns="http://www.w3.org/2000/svg" xmlns:xlink="http://www.w3.org/1999/xlink">
    <!-- Generator: Sketch 41.2 (35397) - http://www.bohemiancoding.com/sketch -->
    <title>PP_Mark</title>
    <desc>Created with Sketch.</desc>
    <defs></defs>
    <g id="Marks-&amp;-Avatars" stroke="none" stroke-width="1" fill="none" fill-rule="evenodd">
        <g id="PP_Mark">
            <g id="Group">
                <g id="Mark">
                    <path d="M97.204,35.8347 C97.204,31.0367 94.599,26.5647 90.406,24.1657 L57.002,5.0527 C54.938,3.8717 52.587,3.2477 50.204,3.2477 C47.821,3.2477 45.47,3.8717 43.406,5.0527 L10.002,24.1657 C5.809,26.5647 3.204,31.0367 3.204,35.8347 L3.204,74.0607 C3.204,78.8587 5.809,83.3307 10.002,85.7297 L43.406,104.8427 C45.47,106.0237 47.821,106.6477 50.204,106.6477 C52.587,106.6477 54.938,106.0237 57.002,104.8427 L90.406,85.7297 C92.592,84.4787 94.34,82.6627 95.519,80.5327 C96.602,78.5767 97.204,76.3577 97.204,74.0607 L97.204,35.8347 Z" id="Fill-1" fill="#FEFEFE"></path>
                    <path d="M10.4461,27.7705 L45.9821,7.4375 C47.2251,6.7265 48.6131,6.3705 50.0001,6.3705 C51.3871,6.3705 52.7751,6.7265 54.0181,7.4375 L89.5541,27.7705 C92.0401,29.1935 93.5721,31.8215 93.5721,34.6675 L93.5721,46.6775 C87.0201,40.6845 63.5941,19.4475 63.5941,19.4475 C63.3931,19.2635 63.1251,19.1925 62.9181,19.1925 C62.7111,19.1925 62.4431,19.2645 62.2431,19.4475 L32.5851,46.3815 C32.1881,46.7495 31.6291,46.7475 31.2311,46.4355 C30.8741,46.1545 30.7091,45.5825 31.0281,45.0785 L37.4271,35.4755 C37.6571,35.1305 37.6241,34.5765 37.2611,34.2135 L29.7661,26.9915 C29.6141,26.8445 29.3801,26.7005 29.0531,26.7005 C28.7581,26.7005 28.5221,26.8245 28.3721,26.9595 C28.3721,26.9595 11.4891,42.1085 6.4281,46.6775 L6.4281,34.6675 C6.4281,31.8215 7.9601,29.1935 10.4461,27.7705 L10.4461,27.7705 Z M100.0001,34.6675 C100.0001,29.5625 97.2291,24.8055 92.7681,22.2535 L57.2321,1.9205 C55.0361,0.6635 52.5351,-0.0005 50.0001,-0.0005 C47.4651,-0.0005 44.9641,0.6635 42.7681,1.9205 L7.2321,22.2535 C2.7711,24.8055 0.0001,29.5625 0.0001,34.6675 L0.0001,75.3325 C0.0001,80.4375 2.7711,85.1945 7.2321,87.7465 L42.7681,108.0795 C44.9641,109.3355 47.4641,109.9995 50.0001,109.9995 C52.5351,109.9995 55.0361,109.3355 57.2321,108.0795 L92.7681,87.7465 C95.0931,86.4165 96.9541,84.4835 98.2071,82.2185 C99.3591,80.1375 100.0001,77.7765 100.0001,75.3325 L100.0001,34.6675 Z" id="Fill-3" fill="#6D95C0"></path>
                    <path d="M61.0231,71.6728 C64.0751,71.8788 63.2661,73.2088 61.7051,74.8918 C60.7251,75.8288 59.0451,75.3178 58.0911,74.9368 C56.4771,74.2908 59.8061,71.5918 61.0231,71.6728 M59.8731,65.8518 C60.2781,65.1558 63.3371,66.4838 63.7221,67.0178 C66.1381,70.3738 60.9371,69.9648 60.5471,68.7208 C60.3731,68.0848 59.5401,66.4198 59.8731,65.8518 M66.0171,74.6868 C66.4691,74.5768 67.4031,77.4008 66.6971,78.5328 C65.9601,79.8268 64.0391,81.1698 63.4191,79.0648 C62.8841,77.1898 64.1741,75.0668 66.0171,74.6868 M66.5561,64.9998 L66.5881,64.9328 C67.0091,64.0268 67.8161,63.3008 68.9351,62.9848 C69.4031,62.8158 70.2831,65.9608 69.6311,66.8238 C69.0721,67.6728 67.3741,69.5248 66.6141,68.0758 C66.1411,67.0298 66.1491,65.9258 66.5561,64.9998 M73.4531,68.6888 C77.0281,69.3858 73.1171,71.8108 71.1881,71.5468 C68.0001,71.0038 71.3841,68.3118 73.4531,68.6888 M73.3081,77.9758 C73.1801,78.0778 73.0191,78.1798 72.8171,78.2568 C69.9261,79.0968 69.0891,75.9158 68.5761,74.0998 C68.2491,72.9708 75.9211,75.9188 73.3081,77.9758 M42.6391,67.7308 C41.5481,68.9158 37.1241,71.9768 39.9531,72.7418 C43.4831,73.8798 43.7901,67.7358 46.9701,68.2338 C49.1921,68.5758 47.4731,69.9598 46.8131,70.6828 C46.5761,70.9348 44.1111,73.1998 44.4441,73.5748 C45.4721,74.9248 46.9871,74.3498 47.8981,73.3658 C50.2071,70.8408 52.5591,68.1748 55.9371,70.5408 C55.9371,70.5408 56.3261,70.7548 56.5261,71.0008 C56.7291,71.2388 56.6541,71.4128 56.5361,71.5718 L53.8441,74.5058 C53.7561,74.5958 53.6741,74.6848 53.5971,74.7748 L53.3391,75.1158 C52.9481,75.7248 53.0151,76.2688 54.3251,76.4868 C56.9121,76.9638 60.1341,76.8438 57.2631,79.7048 C53.9661,82.9878 53.5961,80.5048 49.5161,80.3668 C48.0191,80.2218 46.9611,81.7848 48.6461,82.3548 C49.4481,82.6328 52.5491,82.8648 52.7841,83.5388 C53.9821,86.4178 47.0441,84.5258 46.5331,84.4218 C45.5921,84.2198 44.3671,84.5248 43.8051,85.4118 C43.0581,86.5968 47.4711,87.1738 47.9571,87.3078 C50.6431,88.0288 46.9471,90.0048 46.0041,91.1968 C45.2881,92.1018 44.0581,94.8088 46.7391,94.0478 C48.3341,93.5998 49.2541,90.5218 50.9911,90.5108 C52.7671,90.4158 51.0971,97.6778 53.9331,94.9968 C55.7791,93.2418 54.0211,90.4808 53.4011,88.3028 C53.1851,87.5268 54.0331,86.0688 54.9851,86.1208 C55.7831,86.0688 56.1291,91.1138 57.0891,91.4048 C59.7251,92.1918 57.8911,86.7698 57.7781,86.3678 C57.3311,84.7958 56.9811,84.3428 57.6111,83.0358 C58.3011,82.0398 60.0891,79.6698 60.8251,79.7878 C61.9451,79.9508 62.1031,84.7138 62.7271,85.1208 C63.1851,85.4248 66.6181,83.1558 67.4151,81.3648 C68.0241,82.4358 68.5801,84.4878 68.6591,85.5318 C68.6351,86.9818 68.1191,87.2298 67.0131,88.4338 C66.7321,88.7418 62.6571,92.7608 65.3661,93.2428 C66.0001,93.3298 68.7911,89.1708 69.6191,89.4678 C70.4061,89.8098 70.7991,92.2418 70.4751,93.1608 L74.6101,90.7948 C72.9221,90.1588 71.4771,89.2418 72.7461,88.1498 C73.4121,87.6328 76.0811,88.7158 76.7341,88.8918 C78.3531,89.2728 78.4621,87.6738 77.0911,86.7848 C73.7661,84.3518 71.9381,87.1268 70.4671,82.7118 C69.8971,80.9968 70.1671,80.1648 70.8161,80.2408 C71.2771,80.2948 73.2491,80.8508 73.2491,80.8508 C74.0241,81.0888 77.1171,82.0758 76.7221,80.6838 L75.2661,75.5528 C80.3191,74.1158 81.2871,77.8778 82.2961,81.4528 C82.6671,82.7408 83.7621,83.9358 85.2871,83.1918 C85.7531,83.0068 84.5691,79.8758 84.4701,79.5438 C84.2051,78.6018 83.2921,76.5928 85.4301,77.2848 C87.7141,78.0178 86.9171,81.3278 87.8771,83.2038 L89.6051,82.2148 C89.9471,82.0188 90.2691,81.7988 90.5741,81.5598 C90.2011,80.4868 89.6991,79.3898 89.5261,78.7818 C90.2821,78.6428 91.4171,78.9928 92.5461,79.2998 C93.0571,78.4228 93.3971,77.4498 93.5421,76.4308 C92.1751,76.0728 90.7781,75.8358 90.4001,75.5998 C90.9101,74.5568 92.1731,73.1558 93.1581,72.4148 C93.7911,71.9388 93.6771,71.4348 93.2551,71.1428 C90.9321,69.7938 89.7241,72.2088 87.8901,74.0868 C86.8431,75.2118 83.8251,75.1238 85.3481,73.3138 C85.8771,72.6908 88.9801,70.2378 87.4581,69.7178 C85.0621,68.9948 84.4381,70.2688 83.1021,72.0788 C81.6061,74.1148 74.5931,73.7408 77.1861,71.1058 C77.5981,70.6738 80.2391,68.2828 79.9621,67.7118 C79.7941,67.2798 77.4271,66.9768 76.1791,66.6628 C75.8101,66.5658 73.9141,66.2128 74.6211,65.3758 C75.7271,64.1428 76.8381,61.9918 78.5851,62.3158 C80.1961,62.6208 81.8111,62.9178 83.4251,63.2158 C84.4901,63.4078 84.8981,62.7688 85.5251,61.8758 C86.3291,60.7968 82.4351,60.4778 82.0481,60.4168 C79.8031,60.0688 79.9471,58.1548 82.2411,57.9518 C83.2761,57.7258 85.3211,58.6578 86.3601,58.8918 C87.3931,59.1218 88.9211,59.3308 89.4101,57.9358 C89.9711,56.3298 84.9131,56.3548 84.1531,55.6618 C84.8291,53.6018 89.2471,52.3728 87.3091,49.8768 C86.1951,48.4738 84.4581,51.1518 83.7891,51.8248 C81.6791,53.9688 81.1221,52.4288 80.6881,50.4268 C80.4231,49.2058 80.5501,48.0928 79.8771,48.2578 C76.7201,49.1918 78.9241,52.9068 79.5531,55.2478 C79.8681,56.4168 79.3311,57.1748 78.2481,57.3308 C77.5591,57.3238 76.5651,53.4958 76.2531,52.9228 C75.6631,51.7758 74.0661,53.4848 74.1591,53.9208 L75.3071,57.9658 C75.9861,60.3858 74.4001,63.0338 71.6911,63.7868 C71.5101,63.1328 70.5811,58.4098 69.9021,58.5238 C69.7111,58.5528 69.5001,58.6628 69.2731,58.8268 C68.2341,59.6108 67.4101,60.4828 66.4951,61.5738 C65.6741,62.2918 64.9651,62.5428 64.6251,61.3328 C64.6251,61.3328 63.5721,57.3768 64.9221,55.8978 L67.7641,52.7998 C68.0341,52.4988 67.3841,50.2078 66.3421,50.9668 C65.8061,51.3388 63.3301,54.1638 62.5061,53.9788 C61.8991,53.7338 61.7951,52.1018 62.3491,51.5618 C64.0851,49.8688 67.5941,47.2438 65.1051,45.1108 C64.8071,44.9148 64.5431,45.4388 64.3341,45.6978 C62.7341,47.6808 61.2201,50.0728 60.1031,46.6008 C59.8081,45.6988 59.4441,42.4938 57.8341,43.2788 C55.6681,44.3358 57.2811,47.0488 58.0791,48.9698 C58.2061,49.2748 58.3371,49.6768 58.0531,49.8648 C57.0631,50.1428 52.5551,47.8478 52.3351,49.5338 C52.1451,50.9998 53.6051,51.4998 54.6311,51.7578 C55.6641,52.0168 57.7851,52.1868 58.7331,52.7698 C60.6921,53.9818 59.9601,55.7568 57.7981,55.0588 C57.4241,54.9398 53.8021,53.4748 54.0361,54.7998 C54.1941,55.8798 54.2731,56.6338 55.3101,56.9408 C56.8861,57.3998 58.4621,57.8598 60.0381,58.3108 C61.7451,58.8068 61.7701,61.2278 62.2051,62.8258 C62.2341,62.9488 62.2611,63.1078 62.1271,63.1258 C60.5601,63.0548 55.7821,61.6128 56.1201,62.8038 L57.1121,66.4178 C58.2441,69.9368 51.8111,67.1198 51.3901,64.6288 C51.0101,62.4108 51.0241,60.9928 48.5591,60.5618 C46.9661,60.3428 48.6361,63.9278 48.8281,64.7228 C49.3751,67.0238 46.6401,65.7468 46.2091,64.2708 C45.4151,61.7698 45.0291,58.9448 42.4441,59.1708 C41.9751,59.2148 42.3131,60.2138 42.4751,60.7198 C42.8711,61.9548 43.3031,63.1868 43.2871,64.4948 C42.1701,64.5988 35.2721,61.7928 36.7061,65.3728 C37.3441,66.9758 41.3061,66.7228 42.6391,67.7308" id="Fill-6" fill="#FEFEFE"></path>
                </g>
            </g>
        </g>
    </g>
</svg>